<svg width="128px" height="128px" xmlns="http://www.w3.org/2000/svg">
  <style>
    .clock {
      stroke: #fff;
      stroke-linejoin: round;
      stroke-width: 6;
    }
    .canvas { fill: #222; }
    @media (prefers-color-scheme: dark) {
      .clock { stroke: #222; }
      .canvas { fill: #fff; }
    }
  </style>
  <path class="canvas" d="M16 0 C7.164 0 0 7.164 0 16 L0 112 C0 120.836 7.164 128 16 128 L112 128 C120.836 128 128 120.836 128 112 L128 16 C128 7.164 120.836 0 112 0 Z"/>
  <path class="clock" d="M100 71.72 L82.844 100.885 M98.284 111.179 L82.844 100.885"/>
  <path class="clock" d="M45.101 71.72 L27.945 100.885 M43.386 111.179 L27.945 100.885"/>
  <path class="clock" d="M100 16.821 L82.844 45.986 M98.284 56.28 L82.844 45.986"/>
  <path class="clock" d="M45.101 16.821 L27.945 45.986 M43.386 56.28 L27.945 45.986"/>
</svg>
